<?xml version="1.0" encoding="UTF-8"?>
<svg id="Camada_2" data-name="Camada 2" xmlns="http://www.w3.org/2000/svg" viewBox="0 0 146.78 59.23">
  <defs>
    <style>
      .cls-1 {
        fill: none;
        stroke: #1d1d1b;
        stroke-miterlimit: 10;
      }
    </style>
  </defs>
  <g id="Camada_1-2" data-name="Camada 1">
    <g>
      <path class="cls-1" d="M65.68,16.51v.32H17.24v25.11h18.96l16.3,16.3v.07H9.88c-.34,0-.68-.02-1.01-.06-4.64-.49-8.27-4.37-8.37-9.12V10.76h.04c-.03-.28-.04-.56-.04-.85C.5,5,4.28.97,9.09.58c.26-.03.52-.04.79-.04h39.83l15.97,15.97Z"/>
      <path class="cls-1" d="M145.57,16.87h-19.62c-.39,0-.77-.03-1.15-.08v.08h-9.93v41.15l-14.18-14.19v-26.96h-25.17l-9.84-9.85-6.28-6.28v-.24h65.4v.08c.38-.05.76-.08,1.15-.08,2.68,0,5.06,1.29,6.55,3.29l13.07,13.08Z"/>
      <polygon class="cls-1" points="93.12 58.19 93 58.31 69.01 58.31 68.94 58.24 48.27 37.57 38.64 27.94 62.86 27.94 63.02 28.1 83.61 48.68 93.12 58.19"/>
    </g>
  </g>
</svg>